<?xml version="1.0" encoding="utf-8"?>
<!-- Generator: Adobe Illustrator 17.0.2, SVG Export Plug-In . SVG Version: 6.00 Build 0)  -->
<!DOCTYPE svg PUBLIC "-//W3C//DTD SVG 1.1//EN" "http://www.w3.org/Graphics/SVG/1.1/DTD/svg11.dtd">
<svg version="1.1" id="Camada_1" xmlns="http://www.w3.org/2000/svg" xmlns:xlink="http://www.w3.org/1999/xlink" x="0px" y="0px"
	 width="24px" height="24px" viewBox="0 0 24 24" style="enable-background:new 0 0 24 24;" xml:space="preserve">
<path d="M17.8,12.9l-0.6,1.1l-2.8-1.2l-1.8-4.5l-1.3-0.9L7.9,7.5L7.1,9.6L6.3,9.2L6,9.9l0.8,0.4l-0.2,0.6l1.1,0.4l0.2-0.5l0.9,0.4
	l-0.5,1.1l-0.5,3.2l-1.8,2l1.1,1.1l2.1-2.3l0.4-2.3l1.9,1.8l0,3.2l1.6,0.1l0-3.9l-2.1-2.3l0.2-0.6l1.7,0.8l0.3,0.7l0.6-0.3l2.9,1.3
	l-0.6,1.2c0,0,2.8,0.8,3.7-0.3C20.1,14.3,17.8,12.9,17.8,12.9z M9.1,10.5l-0.9-0.4l0.7-1.4l1,0L9.1,10.5z M11.6,11.6l0.5-1.2
	l0.7,1.7L11.6,11.6z M12.9,7.8c0.8,0,1.4-0.6,1.4-1.4c0-0.8-0.6-1.4-1.4-1.4s-1.4,0.6-1.4,1.4C11.5,7.1,12.1,7.8,12.9,7.8z"/>
</svg>
