<?xml version="1.0" encoding="utf-8"?>
<!-- Generator: Adobe Illustrator 17.0.2, SVG Export Plug-In . SVG Version: 6.00 Build 0)  -->
<!DOCTYPE svg PUBLIC "-//W3C//DTD SVG 1.1//EN" "http://www.w3.org/Graphics/SVG/1.1/DTD/svg11.dtd">
<svg version="1.1" id="Camada_1" xmlns="http://www.w3.org/2000/svg" xmlns:xlink="http://www.w3.org/1999/xlink" x="0px" y="0px"
	 width="24px" height="24px" viewBox="0 0 24 24" style="enable-background:new 0 0 24 24;" xml:space="preserve">
<path d="M20.8,13.5V13L13,11.8V6.2h0.5L13.1,5H3.8L3.4,6.2h0.5v12H3.2V19h17.5v-0.8h-0.7v-4.8L20.8,13.5z M6.7,17.2H5.5v-2.4h1.2
	V17.2z M6.7,13.6H5.5v-2.4h1.2V13.6z M6.7,10H5.5V7.6h1.2V10z M9.1,17.2H7.9v-2.4h1.2V17.2z M9.1,13.6H7.9v-2.4h1.2V13.6z M9.1,10
	H7.9V7.6h1.2V10z M11.5,17.2h-1.2v-2.4h1.2V17.2z M11.5,13.6h-1.2v-2.4h1.2V13.6z M11.5,10h-1.2V7.6h1.2V10z M18.8,17.2h-5.4V14h5.4
	V17.2z"/>
</svg>
