<?xml version="1.0" encoding="utf-8"?>
<!-- Generator: Adobe Illustrator 17.0.2, SVG Export Plug-In . SVG Version: 6.00 Build 0)  -->
<!DOCTYPE svg PUBLIC "-//W3C//DTD SVG 1.1//EN" "http://www.w3.org/Graphics/SVG/1.1/DTD/svg11.dtd">
<svg version="1.1" id="Camada_1" xmlns="http://www.w3.org/2000/svg" xmlns:xlink="http://www.w3.org/1999/xlink" x="0px" y="0px"
	 width="24px" height="24px" viewBox="0 0 24 24" style="enable-background:new 0 0 24 24;" xml:space="preserve">
<g>
	<g>
		<g>
			<g>
				<path d="M9.3,9.2c-0.1,0-0.2,0-0.2-0.1L8.5,8.5c-0.1-0.1-0.1-0.3,0-0.5C8.6,8,8.8,8,9,8.1l0.3,0.3l0.9-0.9
					c0.1-0.1,0.3-0.1,0.5,0c0.1,0.1,0.1,0.3,0,0.5L9.5,9.1C9.5,9.2,9.4,9.2,9.3,9.2z"/>
			</g>
			<g>
				<path d="M15.3,8.6h-3.4c-0.2,0-0.3-0.1-0.3-0.3c0-0.2,0.1-0.3,0.3-0.3h3.4c0.2,0,0.3,0.1,0.3,0.3C15.6,8.5,15.4,8.6,15.3,8.6z"
					/>
			</g>
		</g>
		<g>
			<g>
				<path d="M9.3,14.1c-0.1,0-0.2,0-0.2-0.1l-0.6-0.6c-0.1-0.1-0.1-0.3,0-0.5s0.3-0.1,0.5,0l0.3,0.3l0.9-0.9c0.1-0.1,0.3-0.1,0.5,0
					c0.1,0.1,0.1,0.3,0,0.5L9.5,14C9.5,14.1,9.4,14.1,9.3,14.1z"/>
			</g>
			<g>
				<path d="M15.3,13.6h-3.4c-0.2,0-0.3-0.1-0.3-0.3c0-0.2,0.1-0.3,0.3-0.3h3.4c0.2,0,0.3,0.1,0.3,0.3
					C15.6,13.4,15.4,13.6,15.3,13.6z"/>
			</g>
		</g>
		<g>
			<g>
				<path d="M9.3,16.6c-0.1,0-0.2,0-0.2-0.1l-0.6-0.6c-0.1-0.1-0.1-0.3,0-0.5c0.1-0.1,0.3-0.1,0.5,0l0.3,0.3l0.9-0.9
					c0.1-0.1,0.3-0.1,0.5,0c0.1,0.1,0.1,0.3,0,0.5l-1.1,1.1C9.5,16.6,9.4,16.6,9.3,16.6z"/>
			</g>
			<g>
				<path d="M15.3,16h-3.4c-0.2,0-0.3-0.1-0.3-0.3s0.1-0.3,0.3-0.3h3.4c0.2,0,0.3,0.1,0.3,0.3S15.4,16,15.3,16z"/>
			</g>
		</g>
		<g>
			<g>
				<path d="M9.3,11.7c-0.1,0-0.2,0-0.2-0.1L8.5,11c-0.1-0.1-0.1-0.3,0-0.5c0.1-0.1,0.3-0.1,0.5,0l0.3,0.3l0.9-0.9
					c0.1-0.1,0.3-0.1,0.5,0c0.1,0.1,0.1,0.3,0,0.5l-1.1,1.1C9.5,11.6,9.4,11.7,9.3,11.7z"/>
			</g>
			<g>
				<path d="M15.3,11.1h-3.4c-0.2,0-0.3-0.1-0.3-0.3c0-0.2,0.1-0.3,0.3-0.3h3.4c0.2,0,0.3,0.1,0.3,0.3
					C15.6,10.9,15.4,11.1,15.3,11.1z"/>
			</g>
		</g>
	</g>
	<g>
		<path d="M17.1,19H6.9c-0.3,0-0.5-0.2-0.5-0.5v-13C6.4,5.2,6.6,5,6.9,5h10.3c0.3,0,0.5,0.2,0.5,0.5v13C17.6,18.8,17.4,19,17.1,19z
			 M7.3,18h9.3V6H7.3V18z"/>
	</g>
</g>
</svg>
