<svg xmlns="http://www.w3.org/2000/svg" style="display:none">
    <symbol id="empresa" viewBox="0 0 24 24">
        <path d="M20.8,13.5V13L13,11.8V6.2h0.5L13.1,5H3.8L3.4,6.2h0.5v12H3.2V19h17.5v-0.8h-0.7v-4.8L20.8,13.5z M6.7,17.2H5.5v-2.4h1.2
	  V17.2z M6.7,13.6H5.5v-2.4h1.2V13.6z M6.7,10H5.5V7.6h1.2V10z M9.1,17.2H7.9v-2.4h1.2V17.2z M9.1,13.6H7.9v-2.4h1.2V13.6z M9.1,10
	  H7.9V7.6h1.2V10z M11.5,17.2h-1.2v-2.4h1.2V17.2z M11.5,13.6h-1.2v-2.4h1.2V13.6z M11.5,10h-1.2V7.6h1.2V10z M18.8,17.2h-5.4V14h5.4
	  V17.2z"/>
    </symbol>

    <symbol id="obra" viewBox="0 0 24 24">
        <g>
            <path d="M4.8,19h8.1v-3.1H4.8V19z M9.8,16.6h1.9v1.8H9.8V16.6z M7.9,16.6h1.3v1.8H7.9V16.6z M5.4,16.6h1.9v1.8H5.4V16.6z"/>
            <rect x="12.3" y="12" width="0.6" height="3.4"/>
            <rect x="9.6" y="14" width="2.3" height="0.5"/>
            <rect x="9.6" y="13.1" width="2.3" height="0.5"/>
            <rect x="9.6" y="15" width="2.3" height="0.5"/>
            <rect x="8.6" y="12.9" width="0.6" height="2.6"/>
            <polygon points="5.8,15 5.8,15.5 8.1,15.5 8.1,15 	"/>
            <rect x="4.8" y="14.2" width="0.6" height="1.3"/>
            <path d="M20.5,11.8V9.3h-3.2L16,5l-1.1,4.3h-0.6h-0.6L13.5,9H4.9l-1.4,1.5h10.8v1.3h0.6v5.7h-0.4L13.6,19h5.6l-0.9-1.5h-0.8v-5.7
	  H18v-1.3h0.6v1.3H20.5z M5.7,10h-1l0.4-0.4h1L5.7,10z M7.5,10h-1l0.4-0.4h1L7.5,10z M9.3,10h-1l0.4-0.4h1L9.3,10z M11,10h-1
	  l0.4-0.4h1L11,10z M11.8,10l0.4-0.4h1l0.3,0.4H11.8z M16.1,6.7l0.3,1l-0.8,0.7L16.1,6.7z M16.7,17.5h-1.2v-0.2l1.3-1.2L16.7,17.5z
	  M16.8,15.3l-1.3,1.2v-0.9l1.3-1.2V15.3z M15.5,14.7v-0.9l1.3-1.2v0.9h0L15.5,14.7z M15.5,13v-1.1h1.3L15.5,13z M16.8,11.2h-1.9
	  V9.9h1.9V11.2z M15.5,9.3l1.1-1l0.3,1H15.5z"/>
        </g>
    </symbol>

    <symbol id="tarefa" viewBox="0 0 24 24">
        <g>
            <path d="M9.1,9.1c0.1,0.1,0.1,0.1,0.2,0.1c0.1,0,0.2,0,0.2-0.1L10.7,8c0.1-0.1,0.1-0.3,0-0.5c-0.1-0.1-0.3-0.1-0.5,0L9.3,8.4L9,8.1
	  C8.8,8,8.6,8,8.5,8.1c-0.1,0.1-0.1,0.3,0,0.5L9.1,9.1z"/>
            <path d="M11.8,8.6h3.4c0.2,0,0.3-0.1,0.3-0.3c0-0.2-0.1-0.3-0.3-0.3h-3.4c-0.2,0-0.3,0.1-0.3,0.3S11.7,8.6,11.8,8.6z"/>
            <path d="M9.1,14c0.1,0.1,0.1,0.1,0.2,0.1c0.1,0,0.2,0,0.2-0.1l1.1-1.1c0.1-0.1,0.1-0.3,0-0.5c-0.1-0.1-0.3-0.1-0.5,0l-0.9,0.9L9,13
	  c-0.1-0.1-0.3-0.1-0.5,0c-0.1,0.1-0.1,0.3,0,0.5L9.1,14z"/>
            <path d="M11.8,13.6h3.4c0.2,0,0.3-0.1,0.3-0.3s-0.1-0.3-0.3-0.3h-3.4c-0.2,0-0.3,0.1-0.3,0.3S11.7,13.6,11.8,13.6z"/>
            <path d="M10.2,14.9l-0.9,0.9L9,15.5c-0.1-0.1-0.3-0.1-0.5,0c-0.1,0.1-0.1,0.3,0,0.5l0.6,0.6c0.1,0.1,0.1,0.1,0.2,0.1
	  c0.1,0,0.2,0,0.2-0.1l1.1-1.1c0.1-0.1,0.1-0.3,0-0.5C10.5,14.8,10.3,14.8,10.2,14.9z"/>
            <path d="M11.8,16h3.4c0.2,0,0.3-0.1,0.3-0.3s-0.1-0.3-0.3-0.3h-3.4c-0.2,0-0.3,0.1-0.3,0.3S11.7,16,11.8,16z"/>
            <path d="M9.1,11.6c0.1,0.1,0.1,0.1,0.2,0.1c0.1,0,0.2,0,0.2-0.1l1.1-1.1c0.1-0.1,0.1-0.3,0-0.5c-0.1-0.1-0.3-0.1-0.5,0l-0.9,0.9
	  L9,10.5c-0.1-0.1-0.3-0.1-0.5,0c-0.1,0.1-0.1,0.3,0,0.5L9.1,11.6z"/>
            <path d="M11.8,11.1h3.4c0.2,0,0.3-0.1,0.3-0.3c0-0.2-0.1-0.3-0.3-0.3h-3.4c-0.2,0-0.3,0.1-0.3,0.3S11.7,11.1,11.8,11.1z"/>
            <path d="M17.1,5H6.9C6.6,5,6.4,5.2,6.4,5.5v13c0,0.3,0.2,0.5,0.5,0.5h10.3c0.3,0,0.5-0.2,0.5-0.5v-13C17.6,5.2,17.4,5,17.1,5z
	  M16.7,18H7.3V6h9.3V18z"/>
        </g>
    </symbol>

    <symbol id="atividade" viewBox="0 0 24 24">
        <path d="M17.8,12.9l-0.6,1.1l-2.8-1.2l-1.8-4.5l-1.3-0.9L7.9,7.5L7.1,9.6L6.3,9.2L6,9.9l0.8,0.4l-0.2,0.6l1.1,0.4l0.2-0.5l0.9,0.4
	  l-0.5,1.1l-0.5,3.2l-1.8,2l1.1,1.1l2.1-2.3l0.4-2.3l1.9,1.8l0,3.2l1.6,0.1l0-3.9l-2.1-2.3l0.2-0.6l1.7,0.8l0.3,0.7l0.6-0.3l2.9,1.3
	  l-0.6,1.2c0,0,2.8,0.8,3.7-0.3C20.1,14.3,17.8,12.9,17.8,12.9z M9.1,10.5l-0.9-0.4l0.7-1.4l1,0L9.1,10.5z M11.6,11.6l0.5-1.2
	  l0.7,1.7L11.6,11.6z M12.9,7.8c0.8,0,1.4-0.6,1.4-1.4c0-0.8-0.6-1.4-1.4-1.4s-1.4,0.6-1.4,1.4C11.5,7.1,12.1,7.8,12.9,7.8z"/>
    </symbol>

    <symbol id="equipe" viewBox="0 0 24 24">
        <path d="M16 11c1.66 0 2.99-1.34 2.99-3S17.66 5 16 5c-1.66 0-3 1.34-3 3s1.34 3 3 3zm-8 0c1.66 0 2.99-1.34 2.99-3S9.66 5 8 5C6.34 5 5 6.34 5 8s1.34 3 3 3zm0 2c-2.33 0-7 1.17-7 3.5V19h14v-2.5c0-2.33-4.67-3.5-7-3.5zm8 0c-.29 0-.62.02-.97.05 1.16.84 1.97 1.97 1.97 3.45V19h6v-2.5c0-2.33-4.67-3.5-7-3.5z"/>
    </symbol>

    <symbol id="info_outline" viewBox="0 0 24 24">
        <path d="M11 17h2v-6h-2v6zm1-15C6.48 2 2 6.48 2 12s4.48 10 10 10 10-4.48 10-10S17.52 2 12 2zm0 18c-4.41 0-8-3.59-8-8s3.59-8 8-8 8 3.59 8 8-3.59 8-8 8zM11 9h2V7h-2v2z"/>
    </symbol>

    <symbol id="chevron-up" viewBox="0 0 24 24">
        <path d="M12 8l-6 6 1.41 1.41L12 10.83l4.59 4.58L18 14z"/>
    </symbol>
    
    <symbol id="chevron-down" viewBox="0 0 24 24">
        <path d="M16.59 8.59L12 13.17 7.41 8.59 6 10l6 6 6-6z"/>
    </symbol>

    <symbol id="add" viewBox="0 0 24 24">
        <path d="M19 13h-6v6h-2v-6H5v-2h6V5h2v6h6v2z" />
    </symbol>

    <symbol id="remove" viewBox="0 0 24 24">
        <path d="M19 6.41L17.59 5 12 10.59 6.41 5 5 6.41 10.59 12 5 17.59 6.41 19 12 13.41 17.59 19 19 17.59 13.41 12z" />
    </symbol>

    <symbol id="chevron-left" viewBox="0 0 24 24">
        <path d="M15.41 7.41L14 6l-6 6 6 6 1.41-1.41L10.83 12z" />
    </symbol>

    <symbol id="chevron-right" viewBox="0 0 24 24">
        <path d="M10 6L8.59 7.41 13.17 12l-4.58 4.59L10 18l6-6z" />
    </symbol>

    <symbol id="edit" viewBox="0 0 24 24">
        <path d="M3 17.25V21h3.75L17.81 9.94l-3.75-3.75L3 17.25zM20.71 7.04c.39-.39.39-1.02 0-1.41l-2.34-2.34c-.39-.39-1.02-.39-1.41 0l-1.83 1.83 3.75 3.75 1.83-1.83z" />
    </symbol>

    <symbol id="menu" viewBox="0 0 24 24">
        <path d="M3 18h18v-2H3v2zm0-5h18v-2H3v2zm0-7v2h18V6H3z" />
    </symbol>

    <symbol id="select-all" viewBox="0 0 24 24">
        <path d="M3 5h2V3c-1.1 0-2 .9-2 2zm0 8h2v-2H3v2zm4 8h2v-2H7v2zM3 9h2V7H3v2zm10-6h-2v2h2V3zm6 0v2h2c0-1.1-.9-2-2-2zM5 21v-2H3c0 1.1.9 2 2 2zm-2-4h2v-2H3v2zM9 3H7v2h2V3zm2 18h2v-2h-2v2zm8-8h2v-2h-2v2zm0 8c1.1 0 2-.9 2-2h-2v2zm0-12h2V7h-2v2zm0 8h2v-2h-2v2zm-4 4h2v-2h-2v2zm0-16h2V3h-2v2zM7 17h10V7H7v10zm2-8h6v6H9V9z" />
    </symbol>

    <symbol id="user" viewBox="0 0 24 24">
        <path d="M12 2C6.48 2 2 6.48 2 12s4.48 10 10 10 10-4.48 10-10S17.52 2 12 2zm0 3c1.66 0 3 1.34 3 3s-1.34 3-3 3-3-1.34-3-3 1.34-3 3-3zm0 14.2c-2.5 0-4.71-1.28-6-3.22.03-1.99 4-3.08 6-3.08 1.99 0 5.97 1.09 6 3.08-1.29 1.94-3.5 3.22-6 3.22z" />
    </symbol>

    <symbol id="more-horiz" viewBox="0 0 24 24">
        <path d="M6 10c-1.1 0-2 .9-2 2s.9 2 2 2 2-.9 2-2-.9-2-2-2zm12 0c-1.1 0-2 .9-2 2s.9 2 2 2 2-.9 2-2-.9-2-2-2zm-6 0c-1.1 0-2 .9-2 2s.9 2 2 2 2-.9 2-2-.9-2-2-2z" />
    </symbol>

    <symbol id="more-vert" viewBox="0 0 24 24">
        <path d="M12 8c1.1 0 2-.9 2-2s-.9-2-2-2-2 .9-2 2 .9 2 2 2zm0 2c-1.1 0-2 .9-2 2s.9 2 2 2 2-.9 2-2-.9-2-2-2zm0 6c-1.1 0-2 .9-2 2s.9 2 2 2 2-.9 2-2-.9-2-2-2z" />
    </symbol>

    <symbol id="unfold-less" viewBox="0 0 24 24">
        <path d="M7.41 18.59L8.83 20 12 16.83 15.17 20l1.41-1.41L12 14l-4.59 4.59zm9.18-13.18L15.17 4 12 7.17 8.83 4 7.41 5.41 12 10l4.59-4.59z" />
    </symbol>

    <symbol id="unfold" viewBox="0 0 24 24">
        <path d="M12 5.83L15.17 9l1.41-1.41L12 3 7.41 7.59 8.83 9 12 5.83zm0 12.34L8.83 15l-1.41 1.41L12 21l4.59-4.59L15.17 15 12 18.17z" />
    </symbol>

    <!-- comentarios -->
    <symbol id="com-comentarios" viewBox="0 0 24 24">
        <path d="M20 2H4c-1.1 0-1.99.9-1.99 2L2 22l4-4h14c1.1 0 2-.9 2-2V4c0-1.1-.9-2-2-2zm-2 12H6v-2h12v2zm0-3H6V9h12v2zm0-3H6V6h12v2z" />
    </symbol>

    <symbol id="sem-comentarios" viewBox="0 0 24 24">
        <path d="M20 2H4c-1.1 0-2 .9-2 2v18l4-4h14c1.1 0 2-.9 2-2V4c0-1.1-.9-2-2-2z" />
    </symbol>
</svg>
