<?xml version="1.0" encoding="utf-8"?>
<!-- Generator: Adobe Illustrator 17.0.2, SVG Export Plug-In . SVG Version: 6.00 Build 0)  -->
<!DOCTYPE svg PUBLIC "-//W3C//DTD SVG 1.1//EN" "http://www.w3.org/Graphics/SVG/1.1/DTD/svg11.dtd">
<svg version="1.1" id="Layer_1" xmlns="http://www.w3.org/2000/svg" xmlns:xlink="http://www.w3.org/1999/xlink" x="0px" y="0px"
	 width="100px" height="100px" viewBox="0 0 100 100" style="enable-background:new 0 0 100 100;" xml:space="preserve">
<style type="text/css">
	.st0{font-family:'HelveticaNeue-Bold';}
	.st1{font-size:3.7037;}
</style>
<path d="M22.7,48.7v12.1h31.5V48.7H22.7z M32.4,58.2h-7.3v-6.8h7.3V58.2z M39.6,58.2h-4.8v-6.8h4.8V58.2z M49.3,58.2h-7.3v-6.8h7.3
	V58.2z"/>
<rect x="51.8" y="33.9" width="2.3" height="13.3"/>
<rect x="41.3" y="41.7" width="9" height="1.9"/>
<rect x="41.3" y="38.2" width="9" height="1.9"/>
<rect x="41.3" y="45.2" width="9" height="2"/>
<rect x="37.2" y="37.2" width="2.4" height="10"/>
<polygon points="35.6,47.3 35.6,45.2 26.7,45.2 26.7,47.2 "/>
<rect x="22.7" y="42.1" width="2.4" height="5.1"/>
<path d="M71.3,23.4L66.2,6.8l-4.4,16.7h-2.4h-2.3l-0.7-1.1H23.1l-5.6,5.9h41.8v4.9h2.4v22h-1.6l-3.6,5.7h21.6l-3.6-5.7h-3.1v-22h2.4
	v-4.9h2.4v4.8h7.3v-9.7H71.3z M26.4,26.1h-3.9l1.6-1.6H28L26.4,26.1z M33.2,26.1h-3.9l1.6-1.6h3.9L33.2,26.1z M40,26.1H36l1.6-1.6
	h3.9L40,26.1z M46.7,26.1h-3.9l1.6-1.6h3.9L46.7,26.1z M49.7,26.1l1.6-1.6h3.9l1.1,1.6H49.7z M66.3,13.3l1.2,4l-3,2.9L66.3,13.3z
	 M61.8,30.7v-4.8H69v4.8H61.8z M69,33.5l-4.8,4.1v-4.1H69z M68.7,55.1h-4.6v-0.8l4.8-4.6L68.7,55.1z M69,46.4L64.2,51v-3.7l4.8-4.6
	C69,42.8,69,46.4,69,46.4z M69,39.7l-4.8,4.6v-3.7l4.8-4.6L69,39.7L69,39.7z M64.2,23.4l4.1-3.8l1.2,3.8H64.2z"/>
<text transform="matrix(1 0 0 1 14.2592 84.4444)" class="st0 st1">Created by Anuar Zhumaev</text>
<text transform="matrix(1 0 0 1 14.2592 88.1484)" class="st0 st1">from the Noun Project</text>
</svg>
