<?xml version="1.0" encoding="utf-8"?>
<!-- Generator: Adobe Illustrator 17.0.2, SVG Export Plug-In . SVG Version: 6.00 Build 0)  -->
<!DOCTYPE svg PUBLIC "-//W3C//DTD SVG 1.1//EN" "http://www.w3.org/Graphics/SVG/1.1/DTD/svg11.dtd">
<svg version="1.1" id="Your_Icon" xmlns="http://www.w3.org/2000/svg" xmlns:xlink="http://www.w3.org/1999/xlink" x="0px" y="0px"
	 width="100px" height="100px" viewBox="0 0 100 100" enable-background="new 0 0 100 100" xml:space="preserve">
<path d="M88.333,40.992V38.55l-32.724-4.743V9.742h2.283l-2.03-4.883H16.796l-2.03,4.883h2.283v50.926h-2.79v3.361h74.074v-3.361
	h-2.79V40.587L88.333,40.992z M28.719,56.599h-5.073V46.453h5.073V56.599z M28.719,41.379h-5.073V31.232h5.073V41.379z
	 M28.719,26.158h-5.073V16.01h5.073V26.158z M38.866,56.599h-5.073V46.453h5.073V56.599z M38.866,41.379h-5.073V31.232h5.073V41.379
	z M38.866,26.158h-5.073V16.01h5.073V26.158z M49.013,56.599H43.94V46.453h5.073V56.599z M49.013,41.379H43.94V31.232h5.073V41.379z
	 M49.013,26.158H43.94V16.01h5.073V26.158z M80.157,56.599H57.443V42.901h22.714V56.599z"/>
<text transform="matrix(1 0 0 1 14.2592 84.4444)" font-family="'HelveticaNeue-Bold'" font-size="3.7037">Created by Lil Squid</text>
<text transform="matrix(1 0 0 1 14.2592 88.1484)" font-family="'HelveticaNeue-Bold'" font-size="3.7037">from the Noun Project</text>
</svg>
