<?xml version="1.0" encoding="utf-8"?>
<!-- Generator: Adobe Illustrator 17.0.2, SVG Export Plug-In . SVG Version: 6.00 Build 0)  -->
<!DOCTYPE svg PUBLIC "-//W3C//DTD SVG 1.1//EN" "http://www.w3.org/Graphics/SVG/1.1/DTD/svg11.dtd">
<svg version="1.1" id="Your_Icon" xmlns="http://www.w3.org/2000/svg" xmlns:xlink="http://www.w3.org/1999/xlink" x="0px" y="0px"
	 width="100px" height="100px" viewBox="0 0 100 100" style="enable-background:new 0 0 100 100;" xml:space="preserve">
<style type="text/css">
	.st0{font-family:'HelveticaNeue-Bold';}
	.st1{font-size:3.7037;}
</style>
<g>
	<g>
		<g>
			<path d="M38.4,21.1c-0.4,0-0.8-0.2-1.1-0.5L34.6,18c-0.6-0.6-0.6-1.6,0-2.2c0.6-0.6,1.6-0.6,2.2,0l1.6,1.6l4.3-4.3
				c0.6-0.6,1.6-0.6,2.2,0c0.6,0.6,0.6,1.6,0,2.2l-5.4,5.4C39.2,21,38.8,21.1,38.4,21.1z"/>
		</g>
		<g>
			<path d="M66.9,18.4H50.6c-0.9,0-1.5-0.7-1.5-1.5s0.7-1.5,1.5-1.5h16.3c0.9,0,1.5,0.7,1.5,1.5C68.4,17.7,67.7,18.4,66.9,18.4z"/>
		</g>
	</g>
	<g>
		<g>
			<path d="M38.4,44.5c-0.4,0-0.8-0.2-1.1-0.5l-2.7-2.7c-0.6-0.6-0.6-1.6,0-2.2c0.6-0.6,1.6-0.6,2.2,0l1.6,1.6l4.3-4.3
				c0.6-0.6,1.6-0.6,2.2,0c0.6,0.6,0.6,1.6,0,2.2l-5.4,5.4C39.2,44.4,38.8,44.5,38.4,44.5z"/>
		</g>
		<g>
			<path d="M66.9,41.8H50.6c-0.9,0-1.5-0.7-1.5-1.5c0-0.9,0.7-1.5,1.5-1.5h16.3c0.9,0,1.5,0.7,1.5,1.5
				C68.4,41.2,67.7,41.8,66.9,41.8z"/>
		</g>
	</g>
	<g>
		<g>
			<path d="M38.4,56.3c-0.4,0-0.8-0.2-1.1-0.5l-2.7-2.7c-0.6-0.6-0.6-1.6,0-2.2c0.6-0.6,1.6-0.6,2.2,0l1.6,1.6l4.3-4.3
				c0.6-0.6,1.6-0.6,2.2,0c0.6,0.6,0.6,1.6,0,2.2l-5.4,5.4C39.2,56.1,38.8,56.3,38.4,56.3z"/>
		</g>
		<g>
			<path d="M66.9,53.6H50.6c-0.9,0-1.5-0.7-1.5-1.5s0.7-1.5,1.5-1.5h16.3c0.9,0,1.5,0.7,1.5,1.5S67.7,53.6,66.9,53.6z"/>
		</g>
	</g>
	<g>
		<g>
			<path d="M38.4,32.8c-0.4,0-0.8-0.2-1.1-0.5l-2.7-2.7c-0.6-0.6-0.6-1.6,0-2.2c0.6-0.6,1.6-0.6,2.2,0l1.6,1.6l4.3-4.3
				c0.6-0.6,1.6-0.6,2.2,0c0.6,0.6,0.6,1.6,0,2.2l-5.4,5.4C39.2,32.7,38.8,32.8,38.4,32.8z"/>
		</g>
		<g>
			<path d="M66.9,30.1H50.6c-0.9,0-1.5-0.7-1.5-1.5s0.7-1.5,1.5-1.5h16.3c0.9,0,1.5,0.7,1.5,1.5C68.4,29.4,67.7,30.1,66.9,30.1z"/>
		</g>
	</g>
</g>
<g>
	<path d="M75.8,67.8h-49c-1.3,0-2.3-1-2.3-2.3v-62c0-1.3,1-2.3,2.3-2.3h49c1.3,0,2.3,1,2.3,2.3v62C78.1,66.7,77.1,67.8,75.8,67.8z
		 M29.1,63.1h44.4V5.7H29.1V63.1z"/>
</g>
<text transform="matrix(1 0 0 1 14.2592 84.4444)" class="st0 st1">Created by Garrett Knoll</text>
<text transform="matrix(1 0 0 1 14.2592 88.1484)" class="st0 st1">from the Noun Project</text>
</svg>
