<?xml version="1.0" encoding="utf-8"?>
<!-- Generator: Adobe Illustrator 17.0.2, SVG Export Plug-In . SVG Version: 6.00 Build 0)  -->
<!DOCTYPE svg PUBLIC "-//W3C//DTD SVG 1.1//EN" "http://www.w3.org/Graphics/SVG/1.1/DTD/svg11.dtd">
<svg version="1.1" id="Your_Icon" xmlns="http://www.w3.org/2000/svg" xmlns:xlink="http://www.w3.org/1999/xlink" x="0px" y="0px"
	 width="100px" height="100px" viewBox="0 0 100 100" style="enable-background:new 0 0 100 100;" xml:space="preserve">
<style type="text/css">
	.st0{font-family:'HelveticaNeue-Bold';}
	.st1{font-size:3.7037;}
</style>
<g id="Shape_1_copy">
	<g>
		<path d="M74.3,38.9l-2.7,5.3l-13.2-5.8L49.6,17l-6.4-4.5L27,12.8L23,23l-3.8-1.7L18,24.2l3.9,1.7l-1,2.7l5.3,1.9l1.1-2.3l4.3,1.9
			l-2.3,5.1L27,50.3l-8.6,9.5l5.5,5.1l10.1-11l2-10.7l8.8,8.8l-0.1,15.4l7.4,0.4l0.2-18.3l-9.8-10.9l1.2-3.1l8.2,3.6l1.2,3.1l3-1.3
			L70.1,47l-2.9,5.8c0,0,13.2,4,17.4-1.3C84.9,45.3,74.3,38.9,74.3,38.9z M32.8,27.2l-4.3-1.9l3.1-6.7l4.9,0.2L32.8,27.2z
			 M44.8,32.5l2.2-5.8l3.2,8.1L44.8,32.5z M50.7,14.3c3.6,0,6.6-2.9,6.6-6.6c0-3.6-2.9-6.6-6.6-6.6s-6.6,2.9-6.6,6.6
			C44.1,11.3,47,14.3,50.7,14.3z"/>
	</g>
</g>
<text transform="matrix(1 0 0 1 14.2592 84.4444)" class="st0 st1">Created by Rigo Peter</text>
<text transform="matrix(1 0 0 1 14.2592 88.1484)" class="st0 st1">from the Noun Project</text>
</svg>
